<svg width="101" height="61" viewBox="0 0 101 61" fill="none" xmlns="http://www.w3.org/2000/svg">
<rect x="0.5" y="0.5" width="100" height="47" rx="9.5" fill="white" stroke="black"/>
<path d="M18.3605 20.1429H19.6462V21.4286H18.3605V20.1429ZM17.0748 20.1429H18.3605V21.4286H17.0748V20.1429ZM17.0748 21.4286H18.3605V22.7143H17.0748V21.4286ZM18.3605 21.4286H19.6462V22.7143H18.3605V21.4286ZM19.6462 21.4286H20.9319V22.7143H19.6462V21.4286ZM19.6462 20.1429H20.9319V21.4286H19.6462V20.1429ZM20.9319 20.1429H22.2176V21.4286H20.9319V20.1429ZM22.2176 20.1429H23.5033V21.4286H22.2176V20.1429ZM22.2176 21.4286H23.5033V22.7143H22.2176V21.4286ZM20.9319 21.4286H22.2176V22.7143H20.9319V21.4286ZM20.9319 22.7143H22.2176V24H20.9319V22.7143ZM22.2176 22.7143H23.5033V24H22.2176V22.7143ZM23.5033 21.4286H24.7891V22.7143H23.5033V21.4286ZM23.5033 22.7143H24.7891V24H23.5033V22.7143ZM23.5033 24H24.7891V25.2857H23.5033V24ZM23.5033 25.2857H24.7891V26.5714H23.5033V25.2857ZM23.5033 26.5714H24.7891V27.8571H23.5033V26.5714ZM23.5033 27.8571H24.7891V29.1429H23.5033V27.8571ZM23.5033 29.1429H24.7891V30.4286H23.5033V29.1429ZM23.5033 30.4286H24.7891V31.7143H23.5033V30.4286ZM22.2176 30.4286H23.5033V31.7143H22.2176V30.4286ZM22.2176 29.1429H23.5033V30.4286H22.2176V29.1429ZM22.2176 27.8571H23.5033V29.1429H22.2176V27.8571ZM22.2176 26.5714H23.5033V27.8571H22.2176V26.5714ZM22.2176 25.2857H23.5033V26.5714H22.2176V25.2857ZM22.2176 24H23.5033V25.2857H22.2176V24ZM20.9319 29.1429H22.2176V30.4286H20.9319V29.1429ZM20.9319 30.4286H22.2176V31.7143H20.9319V30.4286ZM22.2176 31.7143H23.5033V33H22.2176V31.7143ZM20.9319 31.7143H22.2176V33H20.9319V31.7143ZM19.6462 31.7143H20.9319V33H19.6462V31.7143ZM19.6462 30.4286H20.9319V31.7143H19.6462V30.4286ZM18.3605 31.7143H19.6462V33H18.3605V31.7143ZM17.0748 31.7143H18.3605V33H17.0748V31.7143ZM17.0748 30.4286H18.3605V31.7143H17.0748V30.4286ZM18.3605 30.4286H19.6462V31.7143H18.3605V30.4286ZM17.0748 29.1429H18.3605V30.4286H17.0748V29.1429ZM15.7891 30.4286H17.0748V31.7143H15.7891V30.4286ZM15.7891 29.1429H17.0748V30.4286H15.7891V29.1429ZM15.7891 27.8571H17.0748V29.1429H15.7891V27.8571ZM15.7891 26.5714H17.0748V27.8571H15.7891V26.5714ZM15.7891 25.2857H17.0748V26.5714H15.7891V25.2857ZM15.7891 24H17.0748V25.2857H15.7891V24ZM15.7891 22.7143H17.0748V24H15.7891V22.7143ZM17.0748 22.7143H18.3605V24H17.0748V22.7143ZM15.7891 21.4286H17.0748V22.7143H15.7891V21.4286ZM17.0748 24H18.3605V25.2857H17.0748V24ZM17.0748 25.2857H18.3605V26.5714H17.0748V25.2857ZM17.0748 26.5714H18.3605V27.8571H17.0748V26.5714ZM17.0748 27.8571H18.3605V29.1429H17.0748V27.8571ZM15.7891 31.7143H17.0748V33H15.7891V31.7143ZM15.7891 20.1429H17.0748V21.4286H15.7891V20.1429ZM26.0781 24H27.3638V25.2857H26.0781V24ZM26.0781 22.7143H27.3638V24H26.0781V22.7143ZM27.3638 22.7143H28.6496V24H27.3638V22.7143ZM27.3638 24H28.6496V25.2857H27.3638V24ZM27.3638 25.2857H28.6496V26.5714H27.3638V25.2857ZM27.3638 26.5714H28.6496V27.8571H27.3638V26.5714ZM27.3638 27.8571H28.6496V29.1429H27.3638V27.8571ZM26.0781 27.8571H27.3638V29.1429H26.0781V27.8571ZM26.0781 26.5714H27.3638V27.8571H26.0781V26.5714ZM26.0781 25.2857H27.3638V26.5714H26.0781V25.2857ZM26.0781 29.1429H27.3638V30.4286H26.0781V29.1429ZM27.3638 29.1429H28.6496V30.4286H27.3638V29.1429ZM27.3638 30.4286H28.6496V31.7143H27.3638V30.4286ZM27.3638 31.7143H28.6496V33H27.3638V31.7143ZM26.0781 31.7143H27.3638V33H26.0781V31.7143ZM26.0781 30.4286H27.3638V31.7143H26.0781V30.4286ZM28.6496 24H29.9353V25.2857H28.6496V24ZM29.9353 24H31.221V25.2857H29.9353V24ZM31.221 24H32.5067V25.2857H31.221V24ZM31.221 22.7143H32.5067V24H31.221V22.7143ZM29.9353 22.7143H31.221V24H29.9353V22.7143ZM28.6496 25.2857H29.9353V26.5714H28.6496V25.2857ZM32.5067 24H33.7924V25.2857H32.5067V24ZM31.221 25.2857H32.5067V26.5714H31.221V25.2857ZM42.7924 33H41.5067V31.7143H42.7924V33ZM42.7924 31.7143H41.5067V30.4286H42.7924V31.7143ZM41.5067 31.7143H40.221V30.4286H41.5067V31.7143ZM40.221 33H38.9353V31.7143H40.221V33ZM38.9353 33H37.6496V31.7143H38.9353V33ZM37.6496 33H36.3638V31.7143H37.6496V33ZM37.6496 31.7143H36.3638V30.4286H37.6496V31.7143ZM38.9353 31.7143H37.6496V30.4286H38.9353V31.7143ZM36.3638 31.7143H35.0781V30.4286H36.3638V31.7143ZM36.3638 30.4286H35.0781V29.1429H36.3638V30.4286ZM36.3638 25.2857H35.0781V24H36.3638V25.2857ZM37.6496 25.2857H36.3638V24H37.6496V25.2857ZM37.6496 30.4286H36.3638V29.1429H37.6496V30.4286ZM38.9353 25.2857H37.6496V24H38.9353V25.2857ZM37.6496 24H36.3638V22.7143H37.6496V24ZM38.9353 24H37.6496V22.7143H38.9353V24ZM40.221 24H38.9353V22.7143H40.221V24ZM41.5067 24H40.221V22.7143H41.5067V24ZM42.7924 24H41.5067V22.7143H42.7924V24ZM42.7924 25.2857H41.5067V24H42.7924V25.2857ZM41.5067 25.2857H40.221V24H41.5067V25.2857ZM42.7924 26.5714H41.5067V25.2857H42.7924V26.5714ZM44.0781 25.2857H42.7924V24H44.0781V25.2857ZM44.0781 26.5714H42.7924V25.2857H44.0781V26.5714ZM44.0781 27.8571H42.7924V26.5714H44.0781V27.8571ZM44.0781 29.1429H42.7924V27.8571H44.0781V29.1429ZM44.0781 30.4286H42.7924V29.1429H44.0781V30.4286ZM44.0781 31.7143H42.7924V30.4286H44.0781V31.7143ZM42.7924 30.4286H41.5067V29.1429H42.7924V30.4286ZM42.7924 29.1429H41.5067V27.8571H42.7924V29.1429ZM42.7924 27.8571H41.5067V26.5714H42.7924V27.8571ZM40.221 25.2857H38.9353V24H40.221V25.2857ZM40.221 31.7143H38.9353V30.4286H40.221V31.7143ZM42.7924 31.7143H44.0781V33H42.7924V31.7143ZM40.221 26.5714H41.5067V27.8571H40.221V26.5714ZM38.9353 26.5714H40.221V27.8571H38.9353V26.5714ZM37.6496 26.5714H38.9353V27.8571H37.6496V26.5714ZM36.3638 26.5714H37.6496V27.8571H36.3638V26.5714ZM35.0781 27.8571H36.3638V29.1429H35.0781V27.8571ZM36.3638 27.8571H37.6496V29.1429H36.3638V27.8571ZM40.221 27.8571H41.5067V29.1429H40.221V27.8571ZM38.9353 27.8571H40.221V29.1429H38.9353V27.8571ZM37.6496 27.8571H38.9353V29.1429H37.6496V27.8571ZM53.0815 22.7143H54.3672V24H53.0815V22.7143ZM51.7958 22.7143H53.0815V24H51.7958V22.7143ZM50.51 22.7143H51.7958V24H50.51V22.7143ZM49.2243 22.7143H50.51V24H49.2243V22.7143ZM47.9386 22.7143H49.2243V24H47.9386V22.7143ZM47.9386 24H49.2243V25.2857H47.9386V24ZM49.2243 24H50.51V25.2857H49.2243V24ZM50.51 24H51.7958V25.2857H50.51V24ZM51.7958 24H53.0815V25.2857H51.7958V24ZM53.0815 24H54.3672V25.2857H53.0815V24ZM46.6529 22.7143H47.9386V24H46.6529V22.7143ZM46.6529 24H47.9386V25.2857H46.6529V24ZM46.6529 25.2857H47.9386V26.5714H46.6529V25.2857ZM45.3672 25.2857H46.6529V26.5714H45.3672V25.2857ZM45.3672 24H46.6529V25.2857H45.3672V24ZM45.3672 26.5714H46.6529V27.8571H45.3672V26.5714ZM45.3672 27.8571H46.6529V29.1429H45.3672V27.8571ZM46.6529 29.1429H47.9386V30.4286H46.6529V29.1429ZM46.6529 27.8571H47.9386V29.1429H46.6529V27.8571ZM46.6529 26.5714H47.9386V27.8571H46.6529V26.5714ZM45.3672 29.1429H46.6529V30.4286H45.3672V29.1429ZM46.6529 30.4286H47.9386V31.7143H46.6529V30.4286ZM47.9386 30.4286H49.2243V31.7143H47.9386V30.4286ZM49.2243 30.4286H50.51V31.7143H49.2243V30.4286ZM51.7958 30.4286H53.0815V31.7143H51.7958V30.4286ZM53.0815 30.4286H54.3672V31.7143H53.0815V30.4286ZM53.0815 29.1429H54.3672V30.4286H53.0815V29.1429ZM51.7958 29.1429H53.0815V30.4286H51.7958V29.1429ZM50.51 29.1429H51.7958V30.4286H50.51V29.1429ZM49.2243 29.1429H50.51V30.4286H49.2243V29.1429ZM47.9386 29.1429H49.2243V30.4286H47.9386V29.1429ZM51.7958 27.8571H53.0815V29.1429H51.7958V27.8571ZM51.7958 26.5714H53.0815V27.8571H51.7958V26.5714ZM51.7958 25.2857H53.0815V26.5714H51.7958V25.2857ZM53.0815 25.2857H54.3672V26.5714H53.0815V25.2857ZM53.0815 26.5714H54.3672V27.8571H53.0815V26.5714ZM53.0815 27.8571H54.3672V29.1429H53.0815V27.8571ZM51.7958 31.7143H53.0815V33H51.7958V31.7143ZM51.7958 33H53.0815V34.2857H51.7958V33ZM53.0815 33H54.3672V34.2857H53.0815V33ZM53.0815 31.7143H54.3672V33H53.0815V31.7143ZM45.3672 33H46.6529V34.2857H45.3672V33ZM46.6529 33H47.9386V34.2857H46.6529V33ZM46.6529 34.2857H47.9386V35.5714H46.6529V34.2857ZM47.9386 34.2857H49.2243V35.5714H47.9386V34.2857ZM47.9386 33H49.2243V34.2857H47.9386V33ZM49.2243 33H50.51V34.2857H49.2243V33ZM50.51 33H51.7958V34.2857H50.51V33ZM51.7958 34.2857H53.0815V35.5714H51.7958V34.2857ZM50.51 34.2857H51.7958V35.5714H50.51V34.2857ZM49.2243 34.2857H50.51V35.5714H49.2243V34.2857ZM60.7891 24H62.0748V25.2857H60.7891V24ZM60.7891 22.7143H62.0748V24H60.7891V22.7143ZM62.0748 22.7143H63.3605V24H62.0748V22.7143ZM62.0748 24H63.3605V25.2857H62.0748V24ZM62.0748 25.2857H63.3605V26.5714H62.0748V25.2857ZM62.0748 26.5714H63.3605V27.8571H62.0748V26.5714ZM62.0748 27.8571H63.3605V29.1429H62.0748V27.8571ZM60.7891 27.8571H62.0748V29.1429H60.7891V27.8571ZM60.7891 26.5714H62.0748V27.8571H60.7891V26.5714ZM60.7891 25.2857H62.0748V26.5714H60.7891V25.2857ZM60.7891 29.1429H62.0748V30.4286H60.7891V29.1429ZM62.0748 29.1429H63.3605V30.4286H62.0748V29.1429ZM62.0748 30.4286H63.3605V31.7143H62.0748V30.4286ZM62.0748 31.7143H63.3605V33H62.0748V31.7143ZM60.7891 31.7143H62.0748V33H60.7891V31.7143ZM60.7891 30.4286H62.0748V31.7143H60.7891V30.4286ZM65.9319 31.7143H67.2176V33H65.9319V31.7143ZM67.2176 31.7143H68.5033V33H67.2176V31.7143ZM67.2176 30.4286H68.5033V31.7143H67.2176V30.4286ZM67.2176 29.1429H68.5033V30.4286H67.2176V29.1429ZM67.2176 27.8571H68.5033V29.1429H67.2176V27.8571ZM67.2176 26.5714H68.5033V27.8571H67.2176V26.5714ZM67.2176 25.2857H68.5033V26.5714H67.2176V25.2857ZM67.2176 24H68.5033V25.2857H67.2176V24ZM65.9319 26.5714H67.2176V27.8571H65.9319V26.5714ZM65.9319 27.8571H67.2176V29.1429H65.9319V27.8571ZM65.9319 29.1429H67.2176V30.4286H65.9319V29.1429ZM65.9319 30.4286H67.2176V31.7143H65.9319V30.4286ZM65.9319 25.2857H67.2176V26.5714H65.9319V25.2857ZM63.3605 24H64.6462V25.2857H63.3605V24ZM64.6462 24H65.9319V25.2857H64.6462V24ZM65.9319 22.7143H67.2176V24H65.9319V22.7143ZM65.9319 24H67.2176V25.2857H65.9319V24ZM64.6462 22.7143H65.9319V24H64.6462V22.7143ZM71.0748 31.7143H72.3605V33H71.0748V31.7143ZM72.3605 31.7143H73.6462V33H72.3605V31.7143ZM72.3605 30.4286H73.6462V31.7143H72.3605V30.4286ZM72.3605 29.1429H73.6462V30.4286H72.3605V29.1429ZM72.3605 27.8571H73.6462V29.1429H72.3605V27.8571ZM72.3605 26.5714H73.6462V27.8571H72.3605V26.5714ZM72.3605 25.2857H73.6462V26.5714H72.3605V25.2857ZM72.3605 24H73.6462V25.2857H72.3605V24ZM71.0748 26.5714H72.3605V27.8571H71.0748V26.5714ZM71.0748 27.8571H72.3605V29.1429H71.0748V27.8571ZM71.0748 29.1429H72.3605V30.4286H71.0748V29.1429ZM71.0748 30.4286H72.3605V31.7143H71.0748V30.4286ZM71.0748 25.2857H72.3605V26.5714H71.0748V25.2857ZM68.5033 24H69.7891V25.2857H68.5033V24ZM69.7891 24H71.0748V25.2857H69.7891V24ZM71.0748 22.7143H72.3605V24H71.0748V22.7143ZM71.0748 24H72.3605V25.2857H71.0748V24ZM69.7891 22.7143H71.0748V24H69.7891V22.7143ZM77.4933 22.7143H78.779V24H77.4933V22.7143ZM76.2076 22.7143H77.4933V24H76.2076V22.7143ZM76.2076 24H77.4933V25.2857H76.2076V24ZM77.4933 24H78.779V25.2857H77.4933V24ZM78.779 22.7143H80.0647V24H78.779V22.7143ZM80.0647 22.7143H81.3504V24H80.0647V22.7143ZM81.3504 22.7143H82.6362V24H81.3504V22.7143ZM81.3504 24H82.6362V25.2857H81.3504V24ZM80.0647 24H81.3504V25.2857H80.0647V24ZM82.6362 24H83.9219V25.2857H82.6362V24ZM82.6362 25.2857H83.9219V26.5714H82.6362V25.2857ZM82.6362 30.4286H83.9219V31.7143H82.6362V30.4286ZM81.3504 30.4286H82.6362V31.7143H81.3504V30.4286ZM81.3504 25.2857H82.6362V26.5714H81.3504V25.2857ZM80.0647 30.4286H81.3504V31.7143H80.0647V30.4286ZM81.3504 31.7143H82.6362V33H81.3504V31.7143ZM80.0647 31.7143H81.3504V33H80.0647V31.7143ZM78.779 31.7143H80.0647V33H78.779V31.7143ZM77.4933 31.7143H78.779V33H77.4933V31.7143ZM76.2076 31.7143H77.4933V33H76.2076V31.7143ZM76.2076 30.4286H77.4933V31.7143H76.2076V30.4286ZM77.4933 30.4286H78.779V31.7143H77.4933V30.4286ZM76.2076 29.1429H77.4933V30.4286H76.2076V29.1429ZM74.9219 30.4286H76.2076V31.7143H74.9219V30.4286ZM74.9219 29.1429H76.2076V30.4286H74.9219V29.1429ZM74.9219 27.8571H76.2076V29.1429H74.9219V27.8571ZM74.9219 26.5714H76.2076V27.8571H74.9219V26.5714ZM74.9219 25.2857H76.2076V26.5714H74.9219V25.2857ZM74.9219 24H76.2076V25.2857H74.9219V24ZM76.2076 25.2857H77.4933V26.5714H76.2076V25.2857ZM76.2076 26.5714H77.4933V27.8571H76.2076V26.5714ZM76.2076 27.8571H77.4933V29.1429H76.2076V27.8571ZM78.779 30.4286H80.0647V31.7143H78.779V30.4286ZM78.779 24H80.0647V25.2857H78.779V24ZM81.3504 26.5714H82.6362V27.8571H81.3504V26.5714ZM82.6362 26.5714H83.9219V27.8571H82.6362V26.5714ZM77.4933 27.8571H78.779V29.1429H77.4933V27.8571ZM78.779 27.8571H80.0647V29.1429H78.779V27.8571ZM80.0647 27.8571H81.3504V29.1429H80.0647V27.8571ZM81.3504 27.8571H82.6362V29.1429H81.3504V27.8571ZM82.6362 27.8571H83.9219V29.1429H82.6362V27.8571ZM80.0647 26.5714H81.3504V27.8571H80.0647V26.5714ZM78.779 26.5714H80.0647V27.8571H78.779V26.5714ZM77.4933 26.5714H78.779V27.8571H77.4933V26.5714Z" fill="#141312"/>
<path d="M41.5312 48L59.4687 48L50.5 60.1582L41.5312 48Z" fill="#D7F9F8" stroke="black"/>
<path d="M50.5 60L40.5407 46.5L60.4593 46.5L50.5 60Z" fill="white"/>
</svg>
